<?xml version="1.0" encoding="utf-8"?>
<!-- Generator: Adobe Illustrator 18.0.0, SVG Export Plug-In . SVG Version: 6.00 Build 0)  -->
<!DOCTYPE svg PUBLIC "-//W3C//DTD SVG 1.1//EN" "http://www.w3.org/Graphics/SVG/1.1/DTD/svg11.dtd">
<svg version="1.1" id="ecommerce_1_" xmlns="http://www.w3.org/2000/svg" xmlns:xlink="http://www.w3.org/1999/xlink" x="0px"
	 y="0px" viewBox="0 0 115 115" style="enable-background:new 0 0 115 115;" xml:space="preserve">
<style type="text/css">
	.st0{fill:#FFEEAD;}
	.st1{fill:#C9B77D;}
	.st2{fill:#99734A;}
	.st3{fill:#FF6F69;}
	.st4{fill:#96CEB4;}
	.st5{fill:none;}
	.st6{fill:#AA9865;}
	.st7{fill:#71A58A;}
	.st8{fill:#FFCC5C;}
	.st9{fill:#825E3B;}
	.st10{fill:#639376;}
	.st11{fill:#E05858;}
	.st12{fill:#C1821E;}
	.st13{fill:#D6A041;}
	.st14{fill:#B28559;}
	.st15{fill:#BF4343;}
	.st16{fill:#D3C089;}
	.st17{fill:#7C5C3C;}
	.st18{fill:#FDCC5C;}
	.st19{fill:#FFFFFF;}
</style>
<g id="shopping_cart_1_">
	<g>
		<g>
			<g>
				<path class="st7" d="M31.058,101.123c-1.122-1.648,0.06-3.154,0.46-3.583l7.021-7.021l-2.656-2.656l-7.041,7.041
					c-1.861,1.92-3.392,6.013,0.02,9.424l0.55,0.55h67.48v-3.756H31.058z"/>
			</g>
			<g>
				<g>
					<path class="st11" d="M100.28,102.899c-1.411-2.855-4.347-4.819-7.747-4.819c-3.4,0-6.336,1.964-7.747,4.819
						c-0.586,1.186,0.284,2.58,1.607,2.58h12.281C99.996,105.479,100.866,104.085,100.28,102.899z"/>
				</g>
				<g>
					<circle class="st17" cx="92.532" cy="106.731" r="6.051"/>
				</g>
				<g>
					<circle class="st1" cx="92.532" cy="106.731" r="3.023"/>
				</g>
			</g>
			<g>
				<g>
					<path class="st11" d="M53.959,102.899c-1.411-2.855-4.347-4.819-7.747-4.819c-3.4,0-6.336,1.964-7.747,4.819
						c-0.586,1.186,0.284,2.58,1.607,2.58h12.281C53.675,105.479,54.545,104.085,53.959,102.899z"/>
				</g>
				<g>
					<circle class="st17" cx="46.211" cy="106.731" r="6.051"/>
				</g>
				<g>
					<circle class="st1" cx="46.211" cy="106.731" r="3.023"/>
				</g>
			</g>
		</g>
		<g>
			<g>
				<path class="st4" d="M24.995,101.266c-1.321-1.941,0.071-3.715,0.542-4.221l8.27-8.271l-3.128-3.128l-8.294,8.294
					c-2.192,2.261-3.995,7.083,0.024,11.102l0.648,0.648h79.49v-4.425H24.995z"/>
			</g>
			<g>
				<g>
					<path class="st3" d="M110.011,103.357c-1.662-3.363-5.121-5.676-9.126-5.676c-4.006,0-7.464,2.313-9.126,5.676
						c-0.691,1.398,0.334,3.04,1.893,3.04h14.466C109.676,106.397,110.701,104.755,110.011,103.357z"/>
				</g>
				<g>
					<circle class="st2" cx="100.884" cy="107.872" r="7.128"/>
				</g>
				<g>
					<circle class="st0" cx="100.884" cy="107.872" r="3.561"/>
				</g>
			</g>
			<g>
				<g>
					<path class="st3" d="M48.497,103.357c-1.662-3.363-5.121-5.676-9.126-5.676c-4.006,0-7.464,2.313-9.126,5.676
						c-0.691,1.398,0.334,3.04,1.893,3.04h14.466C48.163,106.397,49.188,104.755,48.497,103.357z"/>
				</g>
				<g>
					<circle class="st2" cx="39.371" cy="107.872" r="7.128"/>
				</g>
				<g>
					<circle class="st0" cx="39.371" cy="107.872" r="3.561"/>
				</g>
			</g>
		</g>
		<g>
			<path class="st4" d="M26.717,37.924h-14.85c-1.416,0-2.574,1.159-2.574,2.574c0,1.416,1.159,2.574,2.574,2.574h14.85
				c1.416,0,2.575-1.158,2.575-2.574C29.291,39.083,28.133,37.924,26.717,37.924z"/>
		</g>
		<g>
			<g>
				<path class="st7" d="M100.918,44.564l-1.353,11.645H86.848l0.45-12.054h-3.772l-0.45,12.054H71.644V44.254h-3.772v11.955H54.605
					L53.47,44.461h-3.772l1.135,11.748H35.501l-3.015-11.606h-3.772L39.782,87.21h3.772l-3.519-13.545h12.483l1.308,13.545h3.772
					l-1.308-13.545h11.581V87.21h3.772V73.665h10.779L81.918,87.21h3.772l0.506-13.545h11.341L95.963,87.21h3.772l4.956-42.647
					H100.918z M39.09,70.026l-2.644-10.178h14.738l0.983,10.178H39.09z M67.872,70.026H55.939l-0.983-10.178h12.916V70.026z
					 M82.559,70.026H71.644V59.848h11.295L82.559,70.026z M97.96,70.026H86.331l0.38-10.178h12.431L97.96,70.026z"/>
			</g>
		</g>
		<g>
			<g>
				<path class="st4" d="M105.313,42.366l-1.532,12.857H89.384l0.51-13.308h-4.27l-0.51,13.308h-12.94V42.024h-4.27v13.199H52.885
					L51.6,42.253h-4.27l1.285,12.971H31.258L27.846,42.41h-4.27l12.529,47.04h4.27l-3.983-14.954h14.131l1.481,14.954h4.27
					l-1.481-14.954h13.11V89.45h4.27V74.496h12.202L83.803,89.45h4.27l0.573-14.954h12.839L99.703,89.45h4.27l5.61-47.084H105.313z
					 M35.322,70.478l-2.993-11.237h16.684l1.113,11.237H35.322z M67.904,70.478H54.395l-1.113-11.237h14.621V70.478z M84.53,70.478
					H72.174V59.241H84.96L84.53,70.478z M101.964,70.478H88.8l0.43-11.237h14.072L101.964,70.478z"/>
			</g>
		</g>
		<g>
			<g>
				<polygon class="st7" points="27.846,42.41 23.575,42.41 26.327,52.741 30.597,52.741 				"/>
			</g>
			<g>
				<polygon class="st7" points="51.6,42.253 47.33,42.253 48.369,52.741 52.639,52.741 				"/>
			</g>
			<g>
				<path class="st7" d="M105.313,42.366l-1.236,10.375h3.278c0.353,0,0.688-0.065,1.011-0.156l1.218-10.219H105.313z"/>
			</g>
			<g>
				<rect x="67.904" y="42.024" class="st7" width="4.27" height="10.717"/>
			</g>
			<g>
				<polygon class="st7" points="85.624,41.915 85.209,52.741 89.479,52.741 89.894,41.915 				"/>
			</g>
		</g>
		<g>
			<path class="st3" d="M102.993,82.822H34.055c-2.192,0-3.969,1.777-3.969,3.969v1.813c0,2.192,1.777,3.969,3.969,3.969h68.938
				c2.192,0,3.969-1.777,3.969-3.969v-1.813C106.962,84.599,105.185,82.822,102.993,82.822z"/>
		</g>
		<g>
			<path class="st3" d="M107.354,37.539H24.09c-2.059,0-3.729,1.67-3.729,3.729v4.784c0,2.059,1.67,3.729,3.729,3.729h83.265
				c2.059,0,3.729-1.67,3.729-3.729v-4.784C111.084,39.209,109.414,37.539,107.354,37.539z"/>
		</g>
		<g>
			<circle class="st3" cx="9.292" cy="39.23" r="5.376"/>
		</g>
	</g>
	<g>
		<path class="st3" d="M74.68,8.591h-4.352V2.488C70.327,1.114,69.213,0,67.839,0h-5.121c-1.374,0-2.488,1.114-2.488,2.488v6.103
			h-4.352c-1.875,0-3.077,1.996-2.198,3.653l9.401,17.737c0.935,1.764,3.462,1.764,4.397,0l9.401-17.737
			C77.756,10.587,76.555,8.591,74.68,8.591z"/>
	</g>
</g>
</svg>
