<?xml version="1.0" standalone="no"?>
<!DOCTYPE svg PUBLIC "-//W3C//DTD SVG 20010904//EN"
 "http://www.w3.org/TR/2001/REC-SVG-20010904/DTD/svg10.dtd">
<svg version="1.0" xmlns="http://www.w3.org/2000/svg"
 width="300.000000pt" height="338.000000pt" viewBox="0 0 300.000000 338.000000"
 preserveAspectRatio="xMidYMid meet">
<metadata>
Created by potrace 1.10, written by Peter Selinger 2001-2011
</metadata>
<g transform="translate(0.000000,338.000000) scale(0.100000,-0.100000)"
fill="#00ffff" stroke="none">
<path d="M1330 3169 c-25 -11 -60 -35 -79 -52 -36 -34 -81 -119 -81 -153 0
-12 -11 -32 -25 -46 -24 -25 -50 -77 -41 -86 3 -2 8 7 12 22 3 14 19 37 35 50
17 15 29 34 29 49 0 79 83 176 181 212 42 16 55 24 39 24 -14 0 -45 -9 -70
-20z"/>
<path d="M1500 3186 c0 -2 13 -6 29 -8 17 -2 28 -1 25 4 -5 8 -54 12 -54 4z"/>
<path d="M1587 3157 c12 -7 38 -27 58 -46 21 -19 36 -28 33 -20 -6 17 -85 79
-101 79 -7 -1 -2 -6 10 -13z"/>
<path d="M1330 3105 c-7 -9 -11 -17 -9 -20 3 -2 10 5 17 15 14 24 10 26 -8 5z"/>
<path d="M1550 3111 c0 -9 -60 -33 -70 -28 -3 1 -12 -4 -20 -11 -45 -38 -64
-52 -72 -52 -4 0 -7 -3 -6 -7 5 -13 -28 -53 -36 -45 -4 4 -6 2 -5 -3 2 -6 -1
-21 -5 -33 -6 -17 -13 -22 -28 -19 -16 4 -17 3 -7 -9 10 -13 6 -18 -13 -15 -5
0 -8 -4 -8 -9 0 -5 -9 -1 -20 10 -11 11 -28 20 -37 20 -20 0 -67 -22 -64 -30
1 -3 -2 -18 -8 -33 -6 -16 -7 -26 -2 -22 5 3 12 -8 16 -25 4 -17 14 -38 23
-47 9 -9 24 -33 33 -54 15 -33 15 -38 2 -43 -8 -3 -26 -3 -40 0 -18 5 -24 3
-19 -5 4 -6 0 -14 -11 -17 -80 -26 -135 -58 -159 -94 -14 -19 -36 -50 -49 -68
-51 -71 -93 -239 -81 -326 25 -182 25 -201 3 -282 -42 -150 -46 -484 -8 -661
l22 -103 -21 -192 c-11 -106 -27 -246 -35 -311 -22 -172 -20 -209 9 -234 13
-12 33 -24 45 -28 12 -3 21 -11 21 -16 0 -5 7 -9 15 -9 8 0 40 -14 70 -30 85
-46 214 -87 288 -92 20 -1 37 -5 37 -8 0 -7 242 -6 255 2 13 7 71 3 115 -9 19
-5 55 -8 80 -6 25 1 67 3 94 3 26 0 54 5 62 11 7 6 17 9 21 6 4 -2 22 4 38 14
17 11 45 26 63 34 18 9 35 22 39 30 3 8 16 15 29 15 33 0 114 29 133 47 13 13
13 34 3 167 -7 88 -12 326 -12 571 1 430 -5 523 -44 634 l-13 39 76 23 c42 13
92 22 113 21 29 -3 41 2 62 25 45 48 72 185 46 233 -6 11 -22 31 -35 44 -14
14 -25 32 -25 40 0 22 -66 74 -102 81 -23 4 -54 27 -100 74 -37 37 -80 74 -95
82 -31 15 -118 83 -146 114 -10 11 -33 43 -52 72 -40 60 -74 89 -115 98 -39 8
-42 16 -24 49 20 39 18 90 -6 136 -11 22 -28 74 -38 116 -9 41 -21 75 -25 74
-5 -1 -21 9 -35 23 -33 30 -122 80 -122 68z m53 -45 c18 -8 42 -23 53 -34 24
-21 54 -74 53 -94 0 -10 -2 -10 -6 0 -2 6 -10 12 -16 12 -7 -1 -2 -9 11 -19
12 -11 22 -26 22 -35 0 -8 11 -41 25 -72 14 -31 25 -67 25 -79 0 -37 -38 -74
-109 -106 -70 -32 -160 -41 -199 -20 -27 14 -33 14 -30 -1 4 -18 34 -26 98
-27 49 0 80 7 142 34 20 8 30 -12 53 -100 22 -85 26 -123 26 -220 0 -108 -7
-145 -27 -145 -24 0 -101 78 -197 200 -111 140 -252 288 -264 276 -4 -4 2 -15
15 -23 12 -9 22 -22 22 -30 0 -8 4 -12 9 -9 12 8 43 -29 34 -39 -5 -4 -3 -5 3
-2 6 3 30 -17 54 -45 24 -28 49 -56 54 -62 6 -6 30 -36 52 -66 23 -30 53 -68
68 -83 14 -15 26 -30 26 -33 0 -10 95 -94 106 -94 36 0 11 -99 -30 -118 -12
-5 -38 -17 -58 -26 -20 -9 -39 -20 -42 -25 -9 -13 -74 -5 -102 13 -17 12 -40
16 -67 14 -35 -2 -42 0 -41 14 1 10 -2 15 -7 12 -5 -3 -23 11 -40 30 -17 20
-37 36 -44 36 -8 0 9 -23 36 -51 l50 -51 -35 -39 c-56 -61 -78 -163 -50 -233
6 -16 3 -17 -27 -11 -146 32 -233 81 -291 164 -43 62 -50 52 -13 -18 17 -31
44 -59 78 -81 69 -46 94 -59 101 -53 3 3 12 0 20 -6 8 -7 21 -9 27 -5 7 4 9 3
5 -4 -4 -6 1 -10 11 -10 43 3 94 -15 124 -43 31 -29 38 -31 88 -27 50 5 168
-4 216 -16 11 -2 23 -5 27 -5 11 -2 182 -131 203 -154 11 -12 33 -29 48 -37
l27 -16 7 -199 c4 -110 7 -221 8 -247 0 -25 3 -44 7 -41 5 2 8 -12 8 -31 0
-36 31 -258 50 -355 12 -66 12 -70 -1 -51 -9 12 -10 12 -5 -3 3 -10 6 -28 7
-40 0 -21 1 -21 9 -2 9 21 10 20 15 -40 3 -35 21 -85 31 -85 3 0 4 10 1 23
-46 204 -68 333 -92 547 -17 146 -34 500 -25 500 3 0 36 -31 74 -69 45 -45 66
-73 61 -82 -5 -7 -4 -10 2 -6 12 7 51 -40 89 -106 13 -23 24 -36 24 -29 0 14
-28 73 -39 82 -3 3 -26 31 -50 63 -58 77 -175 185 -298 277 -151 114 -159 120
-143 118 18 -3 130 44 130 54 0 4 -24 -4 -54 -17 -73 -32 -118 -39 -160 -25
-20 6 -53 13 -73 15 -21 1 -63 14 -94 28 -49 22 -57 30 -61 59 -6 37 16 132
38 165 8 13 25 25 39 29 14 3 23 9 21 13 -2 3 6 6 17 7 12 1 38 2 57 3 51 2
160 -10 160 -18 0 -4 -6 -15 -13 -25 -10 -14 -26 -18 -70 -17 -33 0 -55 -4
-52 -9 3 -5 12 -7 19 -4 11 4 13 -5 9 -40 -5 -41 -3 -46 15 -46 11 0 22 -7 26
-15 4 -12 15 -14 43 -9 42 6 102 -11 87 -26 -12 -12 -125 -40 -161 -40 -41 0
-83 46 -83 90 0 18 -3 30 -7 26 -10 -10 -12 -126 -1 -120 4 3 8 12 8 21 0 12
7 9 25 -11 28 -31 31 -31 132 -10 49 11 84 24 95 36 18 21 49 21 55 1 5 -14
-50 -44 -127 -67 -30 -10 -61 -20 -69 -22 -8 -2 -12 -6 -10 -8 11 -12 219 59
219 75 0 3 48 5 108 4 106 -1 202 11 202 25 0 4 -19 4 -42 -1 -24 -4 -88 -8
-143 -8 -83 -1 -105 2 -130 19 -18 12 -38 17 -52 14 -14 -4 -23 -2 -23 5 0 7
-20 11 -50 11 -65 0 -110 22 -110 54 0 28 45 45 64 25 8 -8 5 -10 -11 -4 -13
3 -23 4 -23 2 0 -10 79 -46 111 -51 19 -3 48 -9 64 -13 17 -5 62 -7 100 -7 39
1 90 2 115 3 81 2 302 57 346 86 35 23 39 14 14 -28 -16 -26 -35 -40 -78 -57
-31 -12 -67 -26 -80 -31 -13 -5 -32 -9 -42 -9 -22 0 -26 -10 -9 -27 16 -16 47
-145 54 -228 4 -40 9 -297 11 -572 2 -274 5 -520 6 -546 l3 -49 -50 -19 c-27
-10 -65 -19 -82 -19 -23 0 -33 -5 -33 -15 0 -9 -32 -30 -77 -52 -72 -34 -84
-37 -189 -41 -62 -3 -121 -1 -131 3 -10 4 -106 8 -213 9 -181 2 -201 4 -284
29 -105 33 -210 80 -288 129 l-55 36 13 108 c8 60 18 150 23 199 47 436 45
385 19 508 -20 98 -22 138 -21 317 1 170 5 220 23 295 33 140 33 148 15 250
-12 64 -16 117 -11 157 6 66 24 137 38 153 4 5 8 16 8 26 0 9 17 36 38 60 22
24 44 54 50 65 7 14 48 37 114 64 57 23 110 46 119 50 11 6 29 0 55 -15 40
-24 167 -157 251 -262 66 -82 125 -143 140 -143 24 0 8 328 -18 368 -11 18 -8
-21 7 -95 l6 -33 -98 44 c-239 106 -364 178 -364 211 0 21 48 107 78 139 16
17 45 56 65 87 36 58 71 89 129 114 42 18 61 18 101 1z m-355 -188 c15 -15 16
-68 2 -68 -6 0 -15 11 -20 24 -9 26 -30 44 -30 27 0 -5 5 -13 10 -16 8 -5 7
-11 -1 -21 -9 -11 -8 -14 4 -14 23 0 30 -17 16 -41 -9 -18 -13 -19 -23 -8 -23
27 -38 87 -26 109 12 22 49 27 68 8z m567 -259 c28 -14 57 -43 98 -98 56 -78
64 -93 50 -89 -5 1 -21 -4 -37 -11 -16 -6 -30 -10 -31 -9 -1 2 -12 20 -24 41
-12 20 -24 37 -27 37 -5 0 17 -51 29 -68 19 -25 -5 -25 -58 1 -36 17 -54 32
-53 44 0 10 -9 45 -20 78 -11 32 -18 63 -15 69 3 5 1 6 -5 2 -13 -8 -17 16 -6
27 9 9 51 -1 99 -24z m-376 -56 c25 -14 48 -29 51 -33 9 -13 53 -33 46 -21
-10 16 -5 14 78 -23 l76 -35 1 -68 c1 -78 -1 -116 -7 -123 -9 -9 -66 61 -60
75 3 8 0 12 -8 9 -15 -6 -48 29 -44 47 2 8 -2 13 -9 12 -15 -3 -55 46 -47 58
3 5 1 8 -5 7 -6 -2 -37 25 -70 60 -33 34 -57 62 -54 62 4 0 27 -12 52 -27z
m375 -153 c44 -20 45 -22 31 -44 -10 -14 -13 -34 -9 -53 5 -26 2 -32 -15 -38
-11 -3 -20 -9 -20 -13 4 -28 -4 -50 -18 -54 -16 -4 -18 6 -18 109 0 62 1 113
1 113 1 0 22 -9 48 -20z m267 -55 c48 -36 107 -87 132 -115 34 -38 55 -52 88
-59 43 -10 89 -48 89 -75 0 -6 16 -27 35 -46 25 -24 35 -43 35 -64 0 -36 -29
-146 -43 -164 -17 -21 -42 -31 -57 -22 -11 7 -10 11 3 25 10 9 17 23 17 31 0
11 6 13 22 8 21 -6 22 -5 8 11 -23 28 -19 72 8 84 12 6 22 15 22 20 0 5 -12 3
-27 -5 -40 -20 -44 -19 -94 31 -37 37 -50 45 -82 45 -34 0 -38 3 -35 22 4 28
50 39 115 27 53 -10 69 -4 29 11 -35 13 -102 13 -126 0 -24 -13 -34 2 -26 36
4 16 14 24 29 25 l22 2 -23 4 c-12 2 -33 15 -47 29 -13 13 -31 24 -40 24 -11
0 -14 6 -10 23 3 12 0 30 -8 41 -12 16 -13 14 -9 -20 3 -28 0 -41 -14 -51 -28
-20 -47 -17 -39 8 5 14 0 28 -17 46 -23 24 -23 25 -3 39 11 8 25 12 32 10 18
-7 16 5 -4 19 -14 10 -20 8 -41 -16 -29 -36 -42 -37 -42 -4 0 14 -9 34 -20 45
-12 12 -18 25 -15 30 14 23 55 6 136 -55z m-137 23 c23 -24 27 -50 11 -75 -14
-20 -21 -23 -53 -17 -20 4 -40 12 -45 18 -10 15 0 68 16 78 19 12 57 9 71 -4z
m74 -94 c26 -18 30 -64 5 -64 -9 0 -24 -7 -34 -16 -23 -21 -35 -12 -42 28 -3
22 1 39 11 51 19 21 31 21 60 1z m-106 -16 c28 -22 27 -53 -2 -56 -14 -2 -33
-11 -42 -19 -37 -33 -67 36 -32 71 19 19 54 21 76 4z m246 -54 c12 -8 22 -26
22 -39 0 -21 -4 -24 -36 -21 -26 3 -39 10 -49 30 -12 23 -12 27 3 36 24 13 34
12 60 -6z m-86 -21 c20 -18 24 -68 7 -79 -6 -3 -16 -1 -22 5 -6 6 -23 11 -38
11 -33 0 -46 35 -22 62 20 22 51 23 75 1z m-223 -47 c11 -43 -3 -60 -34 -40
-14 9 -33 12 -49 8 -23 -5 -26 -3 -26 19 0 16 10 34 26 46 33 26 71 11 83 -33z
m103 37 c23 -28 27 -47 12 -67 -11 -16 -16 -17 -29 -6 -8 7 -26 10 -39 8 -20
-4 -25 0 -29 21 -6 31 17 61 48 61 12 0 29 -8 37 -17z m222 -59 c19 -18 21
-56 4 -53 -24 3 -37 -1 -53 -17 -35 -35 -62 19 -33 66 15 24 60 26 82 4z
m-124 -24 c26 -26 25 -41 -5 -63 -36 -26 -71 -14 -79 26 -11 53 44 77 84 37z
m-111 -17 c23 -28 20 -59 -7 -79 -12 -8 -19 -7 -34 8 -10 10 -27 18 -38 18
-35 0 -19 58 20 73 28 10 39 7 59 -20z m-121 5 c15 -15 15 -51 0 -66 -8 -8
-17 -6 -36 8 -14 11 -33 20 -43 20 -23 0 -24 13 -3 34 18 19 65 21 82 4z m385
-41 c26 -19 30 -61 8 -81 -29 -26 -63 -17 -67 17 -1 16 -8 35 -14 42 -22 27
41 46 73 22z m75 -16 c13 -10 22 -30 22 -46 0 -27 -1 -27 -18 -12 -10 10 -24
17 -30 17 -7 0 -12 6 -12 14 0 8 -3 21 -6 30 -9 22 18 21 44 -3z m-503 -15
c14 -14 23 -32 20 -40 -17 -53 -14 -50 -34 -32 -12 11 -31 16 -48 14 -23 -2
-29 1 -31 20 -4 28 23 62 50 62 10 0 30 -11 43 -24z m333 8 c28 -20 30 -64 3
-64 -11 0 -27 -9 -35 -21 -17 -25 -40 -16 -31 11 3 11 1 29 -5 40 -10 18 -8
24 7 36 23 18 34 17 61 -2z m-235 -15 c68 -36 31 -107 -40 -76 -22 9 -27 18
-25 37 2 14 11 31 20 38 19 15 18 15 45 1z m135 -5 c28 -19 31 -74 4 -74 -10
0 -23 -5 -29 -11 -17 -17 -61 13 -59 40 1 18 40 61 55 61 4 0 17 -7 29 -16z
m-342 -10 c-3 -9 -6 -19 -6 -24 0 -7 -59 -4 -67 4 -4 4 58 35 71 36 4 0 5 -7
2 -16z m-191 -15 c5 -5 -1 -9 -17 -9 -86 0 -161 -187 -113 -280 9 -17 20 -30
26 -30 8 0 7 5 -1 15 -17 20 -7 19 35 -4 27 -14 32 -20 19 -25 -76 -29 -144
46 -144 159 0 69 59 169 110 188 18 7 72 -2 85 -14z m855 3 c0 -5 11 -14 25
-20 14 -6 25 -19 25 -27 0 -13 -8 -10 -35 11 -34 26 -45 44 -25 44 6 0 10 -4
10 -8z m-51 -25 c18 -20 20 -29 12 -50 -21 -55 -84 -59 -95 -6 -5 25 -1 35 22
54 34 30 34 30 61 2z m-531 -23 c26 -18 28 -50 6 -82 -17 -25 -32 -27 -68 -11
-29 14 -41 48 -19 56 8 3 19 16 24 29 10 28 26 30 57 8z m414 -1 c25 -23 24
-79 -3 -93 -35 -19 -64 -9 -67 25 -2 17 -8 35 -13 42 -7 8 -3 16 13 27 29 20
47 20 70 -1z m183 -3 c20 -22 20 -22 -12 -39 -34 -18 -46 -14 -33 10 7 11 9
27 6 35 -8 21 18 17 39 -6z m-497 -22 c32 -26 1 -98 -43 -98 -35 0 -46 19 -30
50 8 15 12 30 8 33 -3 4 -3 13 1 22 6 17 38 13 64 -7z m91 3 c18 -11 22 -78 5
-92 -19 -16 -80 -7 -75 11 2 8 5 31 6 50 2 19 3 36 4 38 3 6 47 1 60 -7z m127
-15 c25 -40 15 -69 -28 -80 -44 -11 -68 4 -68 42 0 57 66 83 96 38z m144 -40
c0 -3 -4 -8 -10 -11 -5 -3 -10 -1 -10 4 0 6 5 11 10 11 6 0 10 -2 10 -4z"/>
<path d="M1423 2994 l-28 -25 28 17 c19 11 40 15 67 11 40 -5 55 5 24 17 -32
12 -64 5 -91 -20z"/>
<path d="M1560 2995 c0 -18 5 -25 19 -25 20 0 31 17 24 38 -3 6 -13 12 -24 12
-14 0 -19 -7 -19 -25z"/>
<path d="M1635 2990 c-4 -6 5 -9 19 -8 15 1 26 6 26 10 0 12 -38 10 -45 -2z"/>
<path d="M1419 2957 c-14 -7 -24 -17 -22 -24 2 -6 -4 -13 -14 -16 -17 -4 -17
-5 0 -6 22 -1 24 -56 2 -65 -8 -3 -15 -10 -15 -16 0 -8 6 -8 20 0 11 6 39 11
62 13 24 1 46 7 50 12 11 15 10 37 -2 30 -5 -3 -10 1 -10 9 0 9 -4 16 -8 16
-14 0 -32 -24 -32 -43 0 -12 -6 -17 -17 -15 -27 5 -29 62 -4 87 42 42 101 14
101 -48 0 -20 -5 -42 -12 -49 -9 -9 -8 -12 8 -12 17 0 19 7 18 50 -1 81 -50
111 -125 77z"/>
<path d="M1637 2942 c-18 -19 -23 -57 -9 -66 4 -2 8 9 8 25 1 17 10 36 20 44
11 8 14 15 8 15 -6 0 -18 -8 -27 -18z"/>
<path d="M1655 2900 c-10 -16 5 -50 21 -50 15 0 18 18 8 44 -7 18 -20 21 -29
6z"/>
<path d="M1560 2841 c0 -6 16 -7 35 -4 28 4 35 2 35 -10 0 -22 -31 -37 -60
-30 -16 4 -21 3 -16 -5 11 -17 61 -15 77 4 7 9 13 24 14 35 1 16 -5 19 -42 19
-24 0 -43 -4 -43 -9z"/>
<path d="M1555 2740 c-37 -24 -55 -25 -55 -3 0 14 -3 14 -20 -5 -25 -27 -25
-31 0 -25 13 4 30 -3 45 -17 42 -40 125 -26 125 21 0 11 6 19 14 19 8 0 18 5
22 12 5 8 0 9 -14 6 -12 -4 -25 -2 -28 3 -9 16 -58 10 -89 -11z m75 -19 c0 -5
-17 -14 -37 -20 l-38 -11 40 5 c28 3 35 2 25 -5 -22 -14 -53 -12 -75 4 -19 13
-18 15 15 24 46 13 70 14 70 3z"/>
<path d="M1055 2500 c53 -25 75 -44 75 -64 0 -9 5 -15 11 -13 17 3 70 -75 65
-96 -2 -9 0 -15 4 -12 11 7 31 -88 21 -98 -15 -15 -60 4 -64 26 -3 18 -5 17
-6 -5 -1 -23 -6 -28 -28 -29 -52 -2 -82 -8 -103 -19 -11 -6 -26 -8 -32 -4 -6
4 -8 3 -5 -3 8 -12 -14 -23 -45 -23 -12 0 -18 -3 -15 -7 4 -3 -2 -12 -13 -20
-42 -29 -18 -32 33 -4 85 48 249 82 289 60 10 -5 18 -18 18 -27 0 -10 7 -27
15 -38 13 -16 12 -12 -1 31 -15 47 -28 104 -39 168 -3 16 -10 34 -15 40 -5 7
-28 35 -49 63 -44 57 -96 94 -132 94 -20 0 -17 -4 16 -20z"/>
<path d="M1160 2309 c0 -5 5 -7 10 -4 6 3 10 8 10 11 0 2 -4 4 -10 4 -5 0 -10
-5 -10 -11z"/>
<path d="M1185 2160 c3 -5 11 -10 16 -10 6 0 7 5 4 10 -3 6 -11 10 -16 10 -6
0 -7 -4 -4 -10z"/>
<path d="M1123 2113 c-18 -9 -33 -20 -33 -25 0 -12 13 -10 37 7 12 9 45 16 72
16 28 1 51 6 51 10 0 15 -93 9 -127 -8z"/>
<path d="M1260 2066 c0 -2 7 -7 16 -10 8 -3 12 -2 9 4 -6 10 -25 14 -25 6z"/>
<path d="M1311 2013 c7 -12 15 -20 18 -17 3 2 -3 12 -13 22 -17 16 -18 16 -5
-5z"/>
<path d="M1050 1849 c0 -5 5 -7 10 -4 6 3 10 8 10 11 0 2 -4 4 -10 4 -5 0 -10
-5 -10 -11z"/>
<path d="M1536 1817 c3 -10 9 -15 12 -12 3 3 0 11 -7 18 -10 9 -11 8 -5 -6z"/>
<path d="M1168 1793 c7 -3 16 -2 19 1 4 3 -2 6 -13 5 -11 0 -14 -3 -6 -6z"/>
<path d="M1540 1775 c0 -8 7 -15 15 -15 9 0 12 6 9 15 -4 8 -10 15 -15 15 -5
0 -9 -7 -9 -15z"/>
<path d="M1580 1781 c0 -6 5 -13 10 -16 6 -3 10 1 10 9 0 9 -4 16 -10 16 -5 0
-10 -4 -10 -9z"/>
<path d="M2130 1606 c0 -8 4 -17 9 -20 5 -4 7 3 4 14 -6 23 -13 26 -13 6z"/>
<path d="M2147 1535 c3 -22 7 -42 9 -44 8 -9 2 45 -6 64 -7 14 -8 8 -3 -20z"/>
<path d="M2111 1514 c0 -11 3 -14 6 -6 3 7 2 16 -1 19 -3 4 -6 -2 -5 -13z"/>
<path d="M1797 1465 c-5 -11 -6 -99 -3 -195 3 -96 8 -278 12 -405 3 -126 9
-304 14 -395 6 -91 10 -184 10 -207 0 -24 5 -43 11 -43 7 0 8 20 5 58 -11 122
-28 552 -34 872 -4 191 -11 326 -15 315z"/>
<path d="M1842 1415 c0 -16 2 -22 5 -12 2 9 2 23 0 30 -3 6 -5 -1 -5 -18z"/>
<path d="M1864 1298 c22 -404 40 -570 97 -863 4 -22 12 -66 18 -99 6 -32 13
-61 16 -64 9 -10 5 42 -10 108 -50 223 -91 573 -101 853 -4 110 -11 187 -17
187 -6 0 -7 -45 -3 -122z"/>
<path d="M2161 1254 c0 -11 3 -14 6 -6 3 7 2 16 -1 19 -3 4 -6 -2 -5 -13z"/>
<path d="M1911 1164 c0 -11 3 -14 6 -6 3 7 2 16 -1 19 -3 4 -6 -2 -5 -13z"/>
<path d="M2141 984 c0 -11 3 -14 6 -6 3 7 2 16 -1 19 -3 4 -6 -2 -5 -13z"/>
<path d="M1773 935 c0 -33 2 -45 4 -27 2 18 2 45 0 60 -2 15 -4 0 -4 -33z"/>
<path d="M1721 624 c0 -11 3 -14 6 -6 3 7 2 16 -1 19 -3 4 -6 -2 -5 -13z"/>
<path d="M1701 565 c-14 -44 -80 -177 -91 -185 -3 -3 -10 -14 -14 -25 -11 -30
6 -9 53 64 23 35 41 70 41 78 0 7 7 25 16 38 8 13 14 34 12 47 -3 19 -6 16
-17 -17z"/>
<path d="M1751 534 c0 -11 3 -14 6 -6 3 7 2 16 -1 19 -3 4 -6 -2 -5 -13z"/>
<path d="M2173 480 c0 -25 2 -35 4 -22 2 12 2 32 0 45 -2 12 -4 2 -4 -23z"/>
<path d="M1931 474 c0 -11 3 -14 6 -6 3 7 2 16 -1 19 -3 4 -6 -2 -5 -13z"/>
<path d="M1721 434 c0 -11 3 -14 6 -6 3 7 2 16 -1 19 -3 4 -6 -2 -5 -13z"/>
<path d="M2164 395 c3 -23 12 -26 13 -5 1 11 -2 20 -7 20 -4 0 -7 -7 -6 -15z"/>
<path d="M1580 2476 c0 -2 7 -9 15 -16 9 -7 15 -8 15 -2 0 5 -7 12 -15 16 -8
3 -15 4 -15 2z"/>
<path d="M1640 2410 c8 -5 20 -10 25 -10 6 0 3 5 -5 10 -8 5 -19 10 -25 10 -5
0 -3 -5 5 -10z"/>
<path d="M1781 2294 c0 -11 3 -14 6 -6 3 7 2 16 -1 19 -3 4 -6 -2 -5 -13z"/>
<path d="M2330 2060 c0 -12 73 -50 95 -50 26 0 8 17 -24 23 -16 3 -36 13 -44
22 -18 17 -27 19 -27 5z"/>
<path d="M1910 2340 c0 -5 5 -10 10 -10 6 0 10 5 10 10 0 6 -4 10 -10 10 -5 0
-10 -4 -10 -10z"/>
<path d="M1970 2260 c-9 -6 -10 -10 -3 -10 6 0 15 5 18 10 8 12 4 12 -15 0z"/>
<path d="M1727 1883 c-4 -3 -7 -11 -7 -17 0 -6 5 -5 12 2 6 6 9 14 7 17 -3 3
-9 2 -12 -2z"/>
<path d="M2111 1884 c0 -11 3 -14 6 -6 3 7 2 16 -1 19 -3 4 -6 -2 -5 -13z"/>
<path d="M1102 2795 c0 -16 2 -22 5 -12 2 9 2 23 0 30 -3 6 -5 -1 -5 -18z"/>
<path d="M1111 2730 c0 -17 22 -50 34 -50 5 0 1 8 -7 18 -9 9 -18 24 -21 32
-5 13 -5 13 -6 0z"/>
</g>
</svg>
